<svg width="130" height="44" viewBox="0 0 130 44" fill="none" xmlns="http://www.w3.org/2000/svg">
<g id="Download_on_the_App_Store_Badge_US-UK_RGB_blk_092917 1" clip-path="url(#clip0_1691_1652)">
<g id="Group">
<g id="Group_2">
<g id="Group_3">
<path id="Vector" d="M119.648 0.000141229H10.3582C9.95986 0.000141229 9.56627 0.000141229 9.16895 0.00231398C8.83635 0.00448673 8.50641 0.0107986 8.17062 0.0161109C7.44114 0.0246953 6.71337 0.0888722 5.99364 0.208084C5.27492 0.329891 4.57871 0.559533 3.92857 0.889241C3.27922 1.22174 2.68589 1.65379 2.17011 2.16971C1.65162 2.68418 1.21942 3.27884 0.890121 3.93082C0.559918 4.5815 0.330954 5.27877 0.211137 5.99854C0.090181 6.7174 0.0250935 7.44455 0.0164586 8.17346C0.00637702 8.50654 0.00531237 8.84073 0 9.17386V34.2846C0.00531237 34.6219 0.00637702 34.9487 0.0164586 35.2861C0.0250961 36.015 0.0901836 36.7421 0.211137 37.4609C0.330623 38.1811 0.5596 38.8788 0.890121 39.5297C1.21927 40.1796 1.65153 40.7718 2.17011 41.2835C2.68394 41.8017 3.27765 42.234 3.92857 42.564C4.57871 42.8946 5.27484 43.1256 5.99364 43.2493C6.71349 43.3675 7.44118 43.4317 8.17062 43.4413C8.50641 43.4487 8.83635 43.4529 9.16895 43.4529C9.56626 43.4551 9.95988 43.4551 10.3582 43.4551H119.648C120.038 43.4551 120.435 43.4551 120.825 43.4529C121.156 43.4529 121.496 43.4487 121.827 43.4413C122.555 43.4322 123.281 43.368 124 43.2493C124.721 43.1247 125.419 42.8937 126.073 42.564C126.723 42.2338 127.316 41.8015 127.829 41.2835C128.347 40.7698 128.78 40.178 129.113 39.5297C129.441 38.8783 129.668 38.1807 129.786 37.4609C129.907 36.742 129.974 36.0151 129.987 35.2861C129.992 34.9487 129.992 34.6219 129.992 34.2846C130 33.8899 130 33.4974 130 33.0963V10.3599C130 9.96211 130 9.56745 129.992 9.17386C129.992 8.84073 129.992 8.50654 129.987 8.17342C129.974 7.44444 129.907 6.71745 129.786 5.99849C129.668 5.27914 129.441 4.58193 129.113 3.93077C128.442 2.62395 127.379 1.5602 126.073 0.889143C125.419 0.56024 124.721 0.33066 124 0.207986C123.281 0.0882492 122.555 0.0240499 121.827 0.0159588C121.496 0.0106573 121.156 0.00429118 120.825 0.00217275C120.435 0 120.038 0.000141229 119.648 0.000141229Z" fill="#A6A6A6"/>
<path id="Vector_2" d="M9.17426 42.5045C8.84326 42.5045 8.52026 42.5003 8.19186 42.4929C7.51155 42.484 6.83283 42.4248 6.16127 42.3157C5.53508 42.2079 4.92846 42.0072 4.36143 41.7205C3.79961 41.4361 3.28717 41.0632 2.84377 40.6161C2.39394 40.1742 2.01945 39.6617 1.73511 39.0989C1.44765 38.5325 1.2487 37.9253 1.14521 37.2986C1.03345 36.6252 0.972982 35.9442 0.96433 35.2617C0.957442 35.0325 0.948425 34.2697 0.948425 34.2697V9.17382C0.948425 9.17382 0.958029 8.42269 0.964384 8.20202C0.972669 7.52051 1.03278 6.84063 1.14421 6.16825C1.24789 5.5398 1.44699 4.93089 1.73461 4.36258C2.0179 3.80018 2.39032 3.28732 2.83744 2.84389C3.28405 2.39624 3.79812 2.02142 4.3609 1.7331C4.92663 1.44726 5.53209 1.24806 6.15703 1.14218C6.83079 1.03198 7.51187 0.972407 8.19453 0.963948L9.17479 0.950684H120.82L121.812 0.964481C122.488 0.972519 123.163 1.03156 123.831 1.14111C124.462 1.24832 125.074 1.44891 125.646 1.73628C126.773 2.31733 127.691 3.23659 128.27 4.36524C128.553 4.92962 128.749 5.53356 128.851 6.15658C128.964 6.83448 129.027 7.51971 129.04 8.2068C129.043 8.51446 129.043 8.84493 129.043 9.17382C129.052 9.58121 129.052 9.96897 129.052 10.3599V33.0963C129.052 33.491 129.052 33.8761 129.043 34.2644C129.043 34.6177 129.043 34.9413 129.039 35.2744C129.026 35.9492 128.964 36.6222 128.853 37.288C128.752 37.9192 128.554 38.5311 128.266 39.1022C127.98 39.6589 127.608 40.1669 127.163 40.6076C126.719 41.0571 126.206 41.4322 125.643 41.7184C125.072 42.0074 124.461 42.2087 123.831 42.3157C123.159 42.4254 122.481 42.4846 121.8 42.4929C121.482 42.5003 121.149 42.5045 120.825 42.5045L119.648 42.5067L9.17426 42.5045Z" fill="black"/>
</g>
<g id="&#60;Group&#62;">
<g id="&#60;Group&#62;_2">
<g id="&#60;Group&#62;_3">
<path id="&#60;Path&#62;" d="M26.9083 22.0542C26.92 21.1474 27.1608 20.2583 27.6084 19.4697C28.056 18.681 28.6959 18.0184 29.4684 17.5435C28.9776 16.8426 28.3302 16.2658 27.5775 15.8589C26.8249 15.452 25.9877 15.2262 25.1325 15.1994C23.3082 15.0079 21.5396 16.291 20.61 16.291C19.6624 16.291 18.2311 15.2184 16.6898 15.2501C15.6929 15.2823 14.7213 15.5722 13.8697 16.0916C13.0181 16.6109 12.3156 17.342 11.8306 18.2136C9.72953 21.8513 11.2967 27.1974 13.3093 30.1378C14.3163 31.5776 15.4932 33.1859 17.033 33.1289C18.5399 33.0664 19.1027 32.168 20.9216 32.168C22.7236 32.168 23.2517 33.1289 24.8228 33.0926C26.4397 33.0664 27.4585 31.6464 28.4301 30.1929C29.1536 29.167 29.7103 28.0331 30.0797 26.8333C29.1403 26.436 28.3386 25.7709 27.7747 24.9211C27.2107 24.0712 26.9094 23.0741 26.9083 22.0542Z" fill="white"/>
<path id="&#60;Path&#62;_2" d="M23.9407 13.2655C24.8223 12.2072 25.2567 10.8468 25.1515 9.47339C23.8046 9.61486 22.5604 10.2586 21.6669 11.2763C21.23 11.7735 20.8954 12.352 20.6822 12.9786C20.469 13.6051 20.3814 14.2676 20.4244 14.9281C21.0981 14.935 21.7646 14.789 22.3736 14.501C22.9827 14.213 23.5185 13.7906 23.9407 13.2655Z" fill="white"/>
</g>
</g>
<g id="Group_4">
<path id="Vector_3" d="M45.9561 29.4836H40.8139L39.579 33.13H37.4009L42.2716 19.6394H44.5345L49.4051 33.13H47.1899L45.9561 29.4836ZM41.3464 27.801H45.4225L43.4131 21.8833H43.3569L41.3464 27.801Z" fill="white"/>
<path id="Vector_4" d="M59.9241 28.2128C59.9241 31.2693 58.2882 33.2331 55.8194 33.2331C55.1941 33.2658 54.5721 33.1217 54.0248 32.8174C53.4775 32.513 53.0269 32.0607 52.7248 31.5122H52.678V36.384H50.6591V23.2944H52.6134V24.9304H52.6505C52.9666 24.3845 53.4247 23.9345 53.9762 23.6283C54.5277 23.3221 55.1518 23.1712 55.7823 23.1915C58.2786 23.1915 59.9241 25.1648 59.9241 28.2128ZM57.849 28.2128C57.849 26.2215 56.8199 24.9123 55.2497 24.9123C53.7071 24.9123 52.6696 26.2491 52.6696 28.2128C52.6696 30.1946 53.7071 31.5218 55.2497 31.5218C56.8199 31.5218 57.849 30.2222 57.849 28.2128Z" fill="white"/>
<path id="Vector_5" d="M70.7496 28.2128C70.7496 31.2693 69.1137 33.233 66.6449 33.233C66.0196 33.2658 65.3976 33.1217 64.8503 32.8174C64.303 32.513 63.8524 32.0607 63.5503 31.5122H63.5035V36.3839H61.4846V23.2944H63.4388V24.9303H63.4759C63.792 24.3845 64.2502 23.9345 64.8017 23.6283C65.3531 23.3221 65.9773 23.1712 66.6078 23.1915C69.1041 23.1915 70.7496 25.1648 70.7496 28.2128ZM68.6745 28.2128C68.6745 26.2215 67.6454 24.9123 66.0752 24.9123C64.5326 24.9123 63.4951 26.2491 63.4951 28.2128C63.4951 30.1946 64.5326 31.5218 66.0752 31.5218C67.6454 31.5218 68.6745 30.2222 68.6745 28.2128Z" fill="white"/>
<path id="Vector_6" d="M77.9045 29.3713C78.0541 30.7091 79.3537 31.5875 81.1296 31.5875C82.8313 31.5875 84.0556 30.709 84.0556 29.5028C84.0556 28.4557 83.3172 27.8287 81.5689 27.399L79.8205 26.9778C77.3432 26.3794 76.1932 25.2209 76.1932 23.341C76.1932 21.0133 78.2217 19.4146 81.1021 19.4146C83.9527 19.4146 85.9069 21.0133 85.9727 23.341H83.9347C83.8127 21.9947 82.6998 21.182 81.0734 21.182C79.447 21.182 78.3341 22.0042 78.3341 23.201C78.3341 24.1547 79.0449 24.7159 80.7838 25.1456L82.2701 25.5105C85.038 26.1651 86.188 27.277 86.188 29.2502C86.188 31.7741 84.1776 33.3549 80.98 33.3549C77.9882 33.3549 75.9683 31.8113 75.8378 29.3712L77.9045 29.3713Z" fill="white"/>
<path id="Vector_7" d="M90.5452 20.9668V23.2944H92.4156V24.8932H90.5452V30.3156C90.5452 31.1579 90.9197 31.5505 91.7419 31.5505C91.9639 31.5466 92.1856 31.531 92.406 31.5037V33.093C92.0364 33.1621 91.6606 33.1933 91.2846 33.1864C89.2933 33.1864 88.5167 32.4384 88.5167 30.5309V24.8932H87.0866V23.2944H88.5167V20.9668H90.5452Z" fill="white"/>
<path id="Vector_8" d="M93.4988 28.2127C93.4988 25.118 95.3215 23.1733 98.1637 23.1733C101.015 23.1733 102.83 25.118 102.83 28.2127C102.83 31.3158 101.025 33.252 98.1637 33.252C95.3034 33.252 93.4988 31.3158 93.4988 28.2127ZM100.772 28.2127C100.772 26.0898 99.7996 24.8369 98.1637 24.8369C96.5277 24.8369 95.5559 26.0993 95.5559 28.2127C95.5559 30.344 96.5277 31.5874 98.1637 31.5874C99.7996 31.5874 100.772 30.344 100.772 28.2127Z" fill="white"/>
<path id="Vector_9" d="M104.494 23.2943H106.42V24.9684H106.466C106.597 24.4456 106.903 23.9835 107.334 23.6599C107.765 23.3363 108.294 23.1708 108.832 23.1914C109.065 23.1906 109.297 23.2159 109.524 23.2667V25.1552C109.23 25.0654 108.924 25.0242 108.617 25.0332C108.323 25.0213 108.031 25.073 107.76 25.1847C107.488 25.2965 107.244 25.4657 107.044 25.6807C106.844 25.8957 106.694 26.1514 106.602 26.4302C106.51 26.709 106.48 27.0044 106.513 27.2961V33.13H104.494L104.494 23.2943Z" fill="white"/>
<path id="Vector_10" d="M118.832 30.2411C118.561 32.0267 116.822 33.252 114.597 33.252C111.736 33.252 109.96 31.3349 109.96 28.2594C109.96 25.1742 111.745 23.1733 114.512 23.1733C117.234 23.1733 118.945 25.0427 118.945 28.0249V28.7166H111.998V28.8386C111.966 29.2006 112.011 29.5652 112.131 29.9084C112.251 30.2515 112.442 30.5652 112.692 30.8287C112.942 31.0922 113.246 31.2995 113.582 31.4367C113.919 31.5739 114.281 31.6379 114.644 31.6246C115.121 31.6693 115.6 31.5588 116.009 31.3095C116.418 31.0603 116.736 30.6855 116.915 30.2411L118.832 30.2411ZM112.007 27.3056H116.925C116.943 26.9801 116.894 26.6544 116.78 26.3489C116.666 26.0434 116.49 25.7647 116.264 25.5303C116.037 25.2959 115.765 25.1109 115.463 24.9868C115.162 24.8627 114.838 24.8023 114.512 24.8093C114.184 24.8073 113.858 24.8705 113.553 24.9951C113.249 25.1198 112.973 25.3034 112.74 25.5355C112.507 25.7676 112.322 26.0435 112.197 26.3473C112.071 26.6511 112.007 26.9768 112.007 27.3056Z" fill="white"/>
</g>
</g>
</g>
<g id="&#60;Group&#62;_4">
<g id="Group_5">
<path id="Vector_11" d="M41.0934 9.48514C41.5167 9.45476 41.9414 9.51871 42.337 9.67236C42.7325 9.82601 43.0891 10.0655 43.3809 10.3737C43.6726 10.6818 43.8924 11.0508 44.0243 11.4542C44.1562 11.8575 44.1969 12.2851 44.1435 12.7061C44.1435 14.777 43.0243 15.9674 41.0934 15.9674H38.752V9.48514H41.0934ZM39.7588 15.0506H40.981C41.2834 15.0687 41.5861 15.0191 41.867 14.9055C42.1478 14.7918 42.3998 14.617 42.6046 14.3937C42.8094 14.1703 42.9618 13.9042 43.0507 13.6145C43.1396 13.3249 43.1629 13.019 43.1187 12.7193C43.1597 12.4207 43.1341 12.1168 43.0438 11.8292C42.9535 11.5417 42.8007 11.2777 42.5964 11.0562C42.3921 10.8346 42.1413 10.661 41.862 10.5478C41.5827 10.4345 41.2819 10.3845 40.981 10.4012H39.7588V15.0506Z" fill="white"/>
<path id="Vector_12" d="M45.2808 13.5191C45.2501 13.1977 45.2868 12.8733 45.3888 12.5669C45.4907 12.2604 45.6556 11.9787 45.8728 11.7397C46.09 11.5007 46.3548 11.3098 46.6501 11.1791C46.9454 11.0485 47.2648 10.981 47.5878 10.981C47.9107 10.981 48.2301 11.0485 48.5254 11.1791C48.8208 11.3098 49.0855 11.5007 49.3027 11.7397C49.5199 11.9787 49.6848 12.2604 49.7868 12.5669C49.8887 12.8733 49.9255 13.1977 49.8947 13.5191C49.9261 13.8409 49.8897 14.1658 49.788 14.4727C49.6864 14.7796 49.5216 15.0619 49.3043 15.3013C49.0871 15.5408 48.8221 15.7321 48.5265 15.8631C48.2308 15.994 47.9111 16.0617 47.5878 16.0617C47.2644 16.0617 46.9447 15.994 46.6491 15.8631C46.3534 15.7321 46.0885 15.5408 45.8712 15.3013C45.6539 15.0619 45.4892 14.7796 45.3875 14.4727C45.2858 14.1658 45.2495 13.8409 45.2808 13.5191ZM48.9017 13.5191C48.9017 12.4588 48.4253 11.8387 47.5894 11.8387C46.7502 11.8387 46.2781 12.4588 46.2781 13.5192C46.2781 14.588 46.7502 15.2033 47.5894 15.2033C48.4254 15.2033 48.9017 14.5838 48.9017 13.5191Z" fill="white"/>
<path id="Vector_13" d="M56.0278 15.9673H55.0264L54.0153 12.3644H53.9389L52.9321 15.9673H51.9402L50.5917 11.0754H51.571L52.4473 14.8082H52.5194L53.5252 11.0754H54.4513L55.4571 14.8082H55.5335L56.4055 11.0754H57.371L56.0278 15.9673Z" fill="white"/>
<path id="Vector_14" d="M58.5051 11.0753H59.4345V11.8524H59.5066C59.629 11.5733 59.8354 11.3393 60.0971 11.1831C60.3588 11.0269 60.6627 10.9562 60.9664 10.9809C61.2045 10.963 61.4435 10.9989 61.6657 11.0859C61.888 11.1729 62.0879 11.3088 62.2505 11.4836C62.4131 11.6583 62.5343 11.8674 62.6051 12.0953C62.676 12.3233 62.6946 12.5642 62.6597 12.8003V15.9671H61.6942V13.0428C61.6942 12.2567 61.3526 11.8657 60.6386 11.8657C60.477 11.8582 60.3157 11.8857 60.1657 11.9463C60.0157 12.007 59.8806 12.0993 59.7697 12.2171C59.6587 12.3348 59.5746 12.4752 59.5229 12.6285C59.4713 12.7818 59.4534 12.9445 59.4706 13.1054V15.9672H58.5051L58.5051 11.0753Z" fill="white"/>
<path id="Vector_15" d="M64.198 9.16577H65.1634V15.9673H64.198V9.16577Z" fill="white"/>
<path id="Vector_16" d="M66.5055 13.5192C66.4747 13.1977 66.5115 12.8734 66.6135 12.5669C66.7155 12.2605 66.8804 11.9787 67.0976 11.7397C67.3148 11.5007 67.5796 11.3098 67.875 11.1791C68.1703 11.0485 68.4897 10.981 68.8127 10.981C69.1356 10.981 69.455 11.0485 69.7504 11.1791C70.0457 11.3098 70.3105 11.5007 70.5278 11.7397C70.745 11.9787 70.9099 12.2605 71.0119 12.5669C71.1138 12.8734 71.1506 13.1977 71.1199 13.5192C71.1512 13.8411 71.1148 14.1659 71.0131 14.4728C70.9114 14.7797 70.7466 15.062 70.5293 15.3014C70.312 15.5409 70.0471 15.7322 69.7514 15.8631C69.4558 15.9941 69.136 16.0617 68.8127 16.0617C68.4893 16.0617 68.1696 15.9941 67.8739 15.8631C67.5783 15.7322 67.3133 15.5409 67.096 15.3014C66.8787 15.062 66.7139 14.7797 66.6122 14.4728C66.5105 14.1659 66.4742 13.8411 66.5055 13.5192ZM70.1263 13.5192C70.1263 12.4589 69.65 11.8388 68.814 11.8388C67.9748 11.8388 67.5027 12.4589 67.5027 13.5192C67.5027 14.5881 67.9749 15.2034 68.814 15.2034C69.65 15.2034 70.1263 14.5839 70.1263 13.5192Z" fill="white"/>
<path id="Vector_17" d="M72.1362 14.5838C72.1362 13.7032 72.7919 13.1956 73.9557 13.1235L75.2808 13.0471V12.6248C75.2808 12.1082 74.9392 11.8164 74.2793 11.8164C73.7403 11.8164 73.3669 12.0143 73.2597 12.3601H72.3251C72.4237 11.5199 73.2141 10.981 74.3238 10.981C75.5503 10.981 76.242 11.5915 76.242 12.6248V15.9672H75.3126V15.2798H75.2362C75.0812 15.5264 74.8635 15.7274 74.6053 15.8623C74.3472 15.9973 74.0578 16.0613 73.7669 16.0478C73.5615 16.0692 73.3539 16.0473 73.1576 15.9835C72.9612 15.9198 72.7804 15.8155 72.6267 15.6776C72.4731 15.5397 72.3501 15.3711 72.2656 15.1827C72.1811 14.9943 72.137 14.7903 72.1362 14.5838ZM75.2808 14.1658V13.7568L74.0862 13.8332C73.4125 13.8783 73.107 14.1075 73.107 14.5387C73.107 14.979 73.4889 15.2352 74.0141 15.2352C74.168 15.2508 74.3234 15.2352 74.4711 15.1895C74.6189 15.1438 74.7559 15.0688 74.8741 14.969C74.9923 14.8693 75.0892 14.7467 75.1591 14.6087C75.2289 14.4708 75.2703 14.3201 75.2808 14.1658Z" fill="white"/>
<path id="Vector_18" d="M77.5108 13.5192C77.5108 11.9735 78.3054 10.9943 79.5414 10.9943C79.8471 10.9802 80.1505 11.0534 80.4162 11.2054C80.6818 11.3574 80.8987 11.5818 81.0415 11.8525H81.1137V9.16577H82.0791V15.9673H81.154V15.1944H81.0776C80.9238 15.4633 80.6993 15.6849 80.4285 15.8354C80.1577 15.9858 79.851 16.0593 79.5414 16.0479C78.2969 16.048 77.5108 15.0687 77.5108 13.5192ZM78.5081 13.5192C78.5081 14.5568 78.9972 15.1812 79.8151 15.1812C80.6288 15.1812 81.1317 14.5478 81.1317 13.5235C81.1317 12.504 80.6236 11.8616 79.8151 11.8616C79.0025 11.8616 78.5081 12.4902 78.5081 13.5192Z" fill="white"/>
<path id="Vector_19" d="M86.0735 13.5191C86.0427 13.1977 86.0795 12.8733 86.1814 12.5669C86.2834 12.2604 86.4483 11.9787 86.6655 11.7397C86.8827 11.5007 87.1474 11.3098 87.4428 11.1791C87.7381 11.0485 88.0575 10.981 88.3804 10.981C88.7034 10.981 89.0228 11.0485 89.3181 11.1791C89.6134 11.3098 89.8782 11.5007 90.0954 11.7397C90.3126 11.9787 90.4775 12.2604 90.5794 12.5669C90.6814 12.8733 90.7181 13.1977 90.6874 13.5191C90.7187 13.8409 90.6824 14.1658 90.5807 14.4727C90.479 14.7796 90.3143 15.0619 90.097 15.3013C89.8797 15.5408 89.6148 15.7321 89.3191 15.8631C89.0235 15.994 88.7038 16.0617 88.3804 16.0617C88.0571 16.0617 87.7373 15.994 87.4417 15.8631C87.1461 15.7321 86.8811 15.5408 86.6639 15.3013C86.4466 15.0619 86.2818 14.7796 86.1801 14.4727C86.0785 14.1658 86.0421 13.8409 86.0735 13.5191ZM89.6944 13.5191C89.6944 12.4588 89.218 11.8387 88.382 11.8387C87.5428 11.8387 87.0708 12.4588 87.0708 13.5192C87.0708 14.588 87.5429 15.2033 88.382 15.2033C89.218 15.2033 89.6944 14.5838 89.6944 13.5191Z" fill="white"/>
<path id="Vector_20" d="M91.9827 11.0753H92.9121V11.8524H92.9842C93.1066 11.5733 93.313 11.3393 93.5747 11.1831C93.8364 11.0269 94.1403 10.9562 94.4441 10.9809C94.6821 10.963 94.9211 10.9989 95.1433 11.0859C95.3656 11.1729 95.5655 11.3088 95.7281 11.4836C95.8907 11.6583 96.0119 11.8674 96.0827 12.0953C96.1536 12.3233 96.1722 12.5642 96.1373 12.8003V15.9671H95.1718V13.0428C95.1718 12.2567 94.8302 11.8657 94.1162 11.8657C93.9546 11.8582 93.7933 11.8857 93.6433 11.9463C93.4933 12.007 93.3582 12.0993 93.2473 12.2171C93.1363 12.3348 93.0522 12.4752 93.0005 12.6285C92.9489 12.7818 92.931 12.9445 92.9482 13.1054V15.9672H91.9827V11.0753Z" fill="white"/>
<path id="Vector_21" d="M101.593 9.85742V11.0976H102.652V11.9108H101.593V14.4262C101.593 14.9387 101.804 15.163 102.284 15.163C102.407 15.1627 102.53 15.1552 102.652 15.1408V15.9449C102.479 15.9759 102.303 15.9925 102.127 15.9943C101.054 15.9943 100.626 15.6166 100.626 14.6734V11.9108H99.8494V11.0976H100.626V9.85742H101.593Z" fill="white"/>
<path id="Vector_22" d="M103.971 9.16577H104.928V11.8616H105.004C105.133 11.5798 105.345 11.3445 105.612 11.1877C105.879 11.0309 106.187 10.9602 106.496 10.9852C106.733 10.9724 106.969 11.0119 107.189 11.101C107.409 11.1901 107.606 11.3267 107.767 11.5009C107.928 11.675 108.049 11.8826 108.12 12.1087C108.192 12.3348 108.212 12.5739 108.181 12.8089V15.9673H107.214V13.0471C107.214 12.2658 106.85 11.87 106.168 11.87C106.002 11.8564 105.835 11.8792 105.679 11.9369C105.523 11.9945 105.381 12.0856 105.264 12.2037C105.147 12.3218 105.057 12.4642 105 12.6208C104.943 12.7773 104.922 12.9444 104.937 13.1102V15.9673H103.971L103.971 9.16577Z" fill="white"/>
<path id="Vector_23" d="M113.81 14.6465C113.679 15.0936 113.395 15.4803 113.007 15.739C112.62 15.9977 112.153 16.112 111.69 16.0617C111.368 16.0702 111.048 16.0085 110.752 15.8808C110.456 15.7532 110.191 15.5626 109.976 15.3223C109.761 15.0821 109.601 14.798 109.507 14.4896C109.412 14.1813 109.386 13.8562 109.431 13.5368C109.388 13.2164 109.414 12.8906 109.508 12.5813C109.602 12.2721 109.761 11.9866 109.975 11.7443C110.189 11.5019 110.452 11.3084 110.748 11.1767C111.043 11.045 111.363 10.9783 111.686 10.981C113.047 10.981 113.868 11.911 113.868 13.4471V13.784H110.414V13.8381C110.399 14.0176 110.421 14.1983 110.48 14.3686C110.539 14.5389 110.633 14.695 110.755 14.8269C110.878 14.9589 111.027 15.0638 111.193 15.1348C111.358 15.2058 111.537 15.2415 111.717 15.2395C111.948 15.2672 112.182 15.2256 112.389 15.12C112.596 15.0144 112.767 14.8496 112.881 14.6465L113.81 14.6465ZM110.414 13.07H112.885C112.897 12.9058 112.875 12.7409 112.819 12.5858C112.764 12.4308 112.677 12.289 112.563 12.1697C112.45 12.0503 112.313 11.956 112.161 11.8928C112.009 11.8296 111.845 11.7989 111.681 11.8027C111.514 11.8006 111.348 11.832 111.193 11.8949C111.039 11.9579 110.898 12.0511 110.78 12.1692C110.662 12.2874 110.569 12.4279 110.506 12.5826C110.443 12.7373 110.412 12.903 110.414 13.07Z" fill="white"/>
</g>
</g>
</g>
</g>
<defs>
<clipPath id="clip0_1691_1652">
<rect width="130" height="43.455" fill="white"/>
</clipPath>
</defs>
</svg>
